<svg xml:space="preserve" width="682.667" height="682.667" xmlns="http://www.w3.org/2000/svg"><defs><clipPath clipPathUnits="userSpaceOnUse" id="a"><path d="M0 512h512V0H0Z"/></clipPath></defs><g clip-path="url(#a)" transform="matrix(1.33333 0 0 -1.33333 0 682.667)"><path d="M0 0c0-12.808-10.384-23.191-23.191-23.191C-36-23.191-46.383-12.808-46.383 0c0 12.809 10.383 23.191 23.192 23.191C-10.384 23.191 0 12.809 0 0" style="fill:#ff656f;fill-opacity:1;fill-rule:nonzero;stroke:none" transform="translate(84.65 237.674)"/><path d="M0 0c0-12.809-10.384-23.191-23.191-23.191C-36-23.191-46.383-12.809-46.383 0c0 12.808 10.383 23.191 23.192 23.191C-10.384 23.191 0 12.808 0 0" style="fill:#ffa85d;fill-opacity:1;fill-rule:nonzero;stroke:none" transform="translate(181.938 286.401)"/><path d="M0 0c0-12.808-10.383-23.191-23.191-23.191S-46.383-12.808-46.383 0c0 12.809 10.384 23.191 23.192 23.191S0 12.809 0 0" style="fill:#fee55a;fill-opacity:1;fill-rule:nonzero;stroke:none" transform="translate(279.226 383.854)"/><path d="M0 0c0-12.809-10.383-23.191-23.191-23.191S-46.382-12.809-46.382 0s10.383 23.191 23.191 23.191S0 12.809 0 0" style="fill:#43cb8e;fill-opacity:1;fill-rule:nonzero;stroke:none" transform="translate(376.514 335.128)"/><path d="M0 0c0-12.809-10.384-23.191-23.191-23.191C-36-23.191-46.383-12.809-46.383 0S-36 23.191-23.191 23.191C-10.384 23.191 0 12.809 0 0" style="fill:#23a8fe;fill-opacity:1;fill-rule:nonzero;stroke:none" transform="translate(473.803 481.309)"/><path d="M0 0c0 8.133 4.189 15.283 10.524 19.423a23.064 23.064 0 0 1-12.666 3.768C-14.95 23.191-25.333 12.809-25.333 0c0-12.808 10.383-23.191 23.191-23.191 4.675 0 9.025 1.388 12.666 3.768C4.189-15.282 0-8.132 0 0" style="fill:#ff4756;fill-opacity:1;fill-rule:nonzero;stroke:none" transform="translate(63.6 237.674)"/><path d="M0 0c0 8.133 4.189 15.282 10.525 19.423a23.076 23.076 0 0 1-12.667 3.768C-14.95 23.191-25.333 12.808-25.333 0c0-12.809 10.383-23.191 23.191-23.191 4.676 0 9.025 1.387 12.667 3.768C4.189-15.283 0-8.133 0 0" style="fill:#ff9839;fill-opacity:1;fill-rule:nonzero;stroke:none" transform="translate(160.888 286.401)"/><path d="M0 0c0 8.133 4.189 15.283 10.524 19.423a23.068 23.068 0 0 1-12.667 3.768C-14.95 23.191-25.334 12.809-25.334 0c0-12.808 10.384-23.19 23.191-23.19 4.676 0 9.025 1.387 12.667 3.767C4.189-15.282 0-8.132 0 0" style="fill:#ffd301;fill-opacity:1;fill-rule:nonzero;stroke:none" transform="translate(258.177 383.854)"/><path d="M0 0c0 8.133 4.189 15.283 10.524 19.423a23.073 23.073 0 0 1-12.667 3.768c-12.807 0-23.19-10.382-23.19-23.191 0-12.808 10.383-23.191 23.19-23.191 4.676 0 9.026 1.388 12.667 3.768C4.189-15.283 0-8.133 0 0" style="fill:#00ba66;fill-opacity:1;fill-rule:nonzero;stroke:none" transform="translate(355.465 335.128)"/><path d="M0 0c0 8.133 4.189 15.283 10.524 19.423a23.072 23.072 0 0 1-12.666 3.768C-14.95 23.191-25.333 12.809-25.333 0S-14.95-23.191-2.142-23.191c4.675 0 9.025 1.388 12.666 3.768C4.189-15.283 0-8.133 0 0" style="fill:#0193fa;fill-opacity:1;fill-rule:nonzero;stroke:none" transform="translate(452.753 481.309)"/><path d="M0 0h-50.164a6.272 6.272 0 0 1-6.273-6.271v-138.061H6.271V-6.271A6.27 6.27 0 0 1 0 0" style="fill:#ff656f;fill-opacity:1;fill-rule:nonzero;stroke:none" transform="translate(86.54 151.832)"/><path d="M0 0h-50.164a6.273 6.273 0 0 1-6.273-6.272V-193.06H6.272V-6.272A6.273 6.273 0 0 1 0 0" style="fill:#ffa85d;fill-opacity:1;fill-rule:nonzero;stroke:none" transform="translate(183.828 200.56)"/><path d="M0 0h-50.164a6.273 6.273 0 0 1-6.273-6.271v-284.666H6.272V-6.271A6.272 6.272 0 0 1 0 0" style="fill:#fee55a;fill-opacity:1;fill-rule:nonzero;stroke:none" transform="translate(281.116 298.438)"/><path d="M0 0h-50.164a6.273 6.273 0 0 1-6.272-6.272v-235.514H6.272V-6.272A6.272 6.272 0 0 1 0 0" style="fill:#43cb8e;fill-opacity:1;fill-rule:nonzero;stroke:none" transform="translate(378.404 249.286)"/><path d="M0 0h-50.164a6.273 6.273 0 0 1-6.273-6.272v-382.379H6.271V-6.272A6.272 6.272 0 0 1 0 0" style="fill:#23a8fe;fill-opacity:1;fill-rule:nonzero;stroke:none" transform="translate(475.693 396.151)"/><path d="M0 0h-38.538a6.272 6.272 0 0 1-6.273-6.271v-138.061h38.54V-6.271A6.27 6.27 0 0 0 0 0" style="fill:#ff4756;fill-opacity:1;fill-rule:nonzero;stroke:none" transform="translate(74.914 151.832)"/><path d="M0 0h-38.538a6.273 6.273 0 0 1-6.273-6.272V-193.06h38.54V-6.272A6.272 6.272 0 0 0 0 0" style="fill:#ff9839;fill-opacity:1;fill-rule:nonzero;stroke:none" transform="translate(172.202 200.56)"/><path d="M0 0h-38.539a6.273 6.273 0 0 1-6.273-6.271v-284.666h38.54V-6.271A6.272 6.272 0 0 0 0 0" style="fill:#ffd301;fill-opacity:1;fill-rule:nonzero;stroke:none" transform="translate(269.491 298.438)"/><path d="M0 0h-38.539a6.273 6.273 0 0 1-6.272-6.272v-235.514h38.539V-6.272A6.273 6.273 0 0 0 0 0" style="fill:#00ba66;fill-opacity:1;fill-rule:nonzero;stroke:none" transform="translate(366.78 249.286)"/><path d="M0 0h-38.538a6.273 6.273 0 0 1-6.273-6.272v-382.379h38.54V-6.272A6.272 6.272 0 0 0 0 0" style="fill:#0193fa;fill-opacity:1;fill-rule:nonzero;stroke:none" transform="translate(464.067 396.151)"/><path d="M0 0c0-12.808-10.383-23.191-23.191-23.191S-46.382-12.808-46.382 0c0 12.809 10.383 23.191 23.191 23.191S0 12.809 0 0Z" style="fill:none;stroke:#000;stroke-width:15;stroke-linecap:round;stroke-linejoin:round;stroke-miterlimit:10;stroke-dasharray:none;stroke-opacity:1" transform="translate(84.614 237.674)"/><path d="M0 0c0-12.809-10.384-23.191-23.191-23.191C-36-23.191-46.383-12.809-46.383 0c0 12.808 10.383 23.191 23.192 23.191C-10.384 23.191 0 12.808 0 0Z" style="fill:none;stroke:#000;stroke-width:15;stroke-linecap:round;stroke-linejoin:round;stroke-miterlimit:10;stroke-dasharray:none;stroke-opacity:1" transform="translate(181.903 286.401)"/><path d="M0 0c0-12.808-10.383-23.191-23.191-23.191C-36-23.191-46.383-12.808-46.383 0c0 12.809 10.383 23.191 23.192 23.191C-10.383 23.191 0 12.809 0 0Z" style="fill:none;stroke:#000;stroke-width:15;stroke-linecap:round;stroke-linejoin:round;stroke-miterlimit:10;stroke-dasharray:none;stroke-opacity:1" transform="translate(279.191 383.854)"/><path d="M0 0c0-12.809-10.383-23.191-23.191-23.191S-46.383-12.809-46.383 0s10.384 23.191 23.192 23.191S0 12.809 0 0Z" style="fill:none;stroke:#000;stroke-width:15;stroke-linecap:round;stroke-linejoin:round;stroke-miterlimit:10;stroke-dasharray:none;stroke-opacity:1" transform="translate(376.48 335.128)"/><path d="M0 0c0-12.809-10.383-23.191-23.19-23.191-12.809 0-23.192 10.382-23.192 23.191s10.383 23.191 23.192 23.191C-10.383 23.191 0 12.809 0 0Z" style="fill:none;stroke:#000;stroke-width:15;stroke-linecap:round;stroke-linejoin:round;stroke-miterlimit:10;stroke-dasharray:none;stroke-opacity:1" transform="translate(473.767 481.309)"/><path d="m0 0 71.592 107.569" style="fill:none;stroke:#000;stroke-width:15;stroke-linecap:round;stroke-linejoin:round;stroke-miterlimit:10;stroke-dasharray:none;stroke-opacity:1" transform="translate(366.137 354.434)"/><path d="m0 0 55.817-27.956" style="fill:none;stroke:#000;stroke-width:15;stroke-linecap:round;stroke-linejoin:round;stroke-miterlimit:10;stroke-dasharray:none;stroke-opacity:1" transform="translate(276.736 373.469)"/><path d="m0 0 64.52 64.629" style="fill:none;stroke:#000;stroke-width:15;stroke-linecap:round;stroke-linejoin:round;stroke-miterlimit:10;stroke-dasharray:none;stroke-opacity:1" transform="translate(175.097 302.813)"/><path d="m0 0 55.818 27.956" style="fill:none;stroke:#000;stroke-width:15;stroke-linecap:round;stroke-linejoin:round;stroke-miterlimit:10;stroke-dasharray:none;stroke-opacity:1" transform="translate(82.158 248.06)"/><path d="M0 0h-50.165a6.272 6.272 0 0 1-6.272-6.271v-138.061H6.271V-6.271A6.27 6.27 0 0 1 0 0Z" style="fill:none;stroke:#000;stroke-width:15;stroke-linecap:round;stroke-linejoin:round;stroke-miterlimit:10;stroke-dasharray:none;stroke-opacity:1" transform="translate(86.506 151.832)"/><path d="M0 0h-50.164a6.273 6.273 0 0 1-6.273-6.272V-193.06H6.272V-6.272A6.273 6.273 0 0 1 0 0Z" style="fill:none;stroke:#000;stroke-width:15;stroke-linecap:round;stroke-linejoin:round;stroke-miterlimit:10;stroke-dasharray:none;stroke-opacity:1" transform="translate(183.794 200.56)"/><path d="M0 0h-50.164a6.273 6.273 0 0 1-6.273-6.271v-284.666H6.272V-6.271A6.272 6.272 0 0 1 0 0Z" style="fill:none;stroke:#000;stroke-width:15;stroke-linecap:round;stroke-linejoin:round;stroke-miterlimit:10;stroke-dasharray:none;stroke-opacity:1" transform="translate(281.082 298.438)"/><path d="M0 0h485.426" style="fill:none;stroke:#000;stroke-width:15;stroke-linecap:round;stroke-linejoin:round;stroke-miterlimit:10;stroke-dasharray:none;stroke-opacity:1" transform="translate(13.287 7.5)"/><path d="M0 0h-7.582a6.273 6.273 0 0 1-6.272-6.272v-235.514h62.708V-6.272A6.273 6.273 0 0 1 42.582 0H35" style="fill:none;stroke:#000;stroke-width:15;stroke-linecap:round;stroke-linejoin:round;stroke-miterlimit:10;stroke-dasharray:none;stroke-opacity:1" transform="translate(335.788 249.286)"/><path d="M0 0v175.072a6.273 6.273 0 0 1-6.271 6.273h-50.165a6.273 6.273 0 0 1-6.272-6.273v-382.379H0V-35" style="fill:none;stroke:#000;stroke-width:15;stroke-linecap:round;stroke-linejoin:round;stroke-miterlimit:10;stroke-dasharray:none;stroke-opacity:1" transform="translate(481.93 214.807)"/></g></svg>