<svg xml:space="preserve" width="682.667" height="682.667" xmlns="http://www.w3.org/2000/svg"><defs><clipPath clipPathUnits="userSpaceOnUse" id="a"><path d="M0 512h512V0H0Z"/></clipPath></defs><path d="M344.055 443.738h-68.414v-39.476h68.414z" style="fill:#d5f5fb;fill-opacity:1;fill-rule:nonzero;stroke:none" transform="matrix(1.33333 0 0 -1.33333 0 682.667)"/><g clip-path="url(#a)" transform="matrix(1.33333 0 0 -1.33333 0 682.667)"><path d="M0 0h72c13.255 0 24 10.745 24 24S85.255 48 72 48H0c-13.255 0-24-10.745-24-24S-13.255 0 0 0" style="fill:#ff7480;fill-opacity:1;fill-rule:nonzero;stroke:none" transform="translate(273.848 443.738)"/><path d="M0 0c-106.039 0-192 85.961-192 192s85.961 192 192 192 192-85.961 192-192S106.039 0 0 0" style="fill:#5ddef5;fill-opacity:1;fill-rule:nonzero;stroke:none" transform="translate(310 20.262)"/><path d="M0 0c-74.428-48.468-175.086-40.046-240.398 25.266-74.981 74.981-74.981 196.549 0 271.529 74.981 74.981 196.548 74.981 271.529 0 65.251-65.251 73.718-165.782 25.402-240.189" style="fill:none;stroke:#000;stroke-width:20;stroke-linecap:round;stroke-linejoin:round;stroke-miterlimit:10;stroke-dasharray:none;stroke-opacity:1" transform="translate(414.634 51.231)"/><path d="M0 0v0" style="fill:none;stroke:#000;stroke-width:20;stroke-linecap:round;stroke-linejoin:round;stroke-miterlimit:10;stroke-dasharray:none;stroke-opacity:1" transform="translate(445.765 76.498)"/><path d="M0 0c-80.153 0-145.129 64.976-145.129 145.129 0 80.153 64.976 145.129 145.129 145.129 80.153 0 145.129-64.976 145.129-145.129C145.129 64.976 80.153 0 0 0" style="fill:#fff;fill-opacity:1;fill-rule:nonzero;stroke:none" transform="translate(310 67.133)"/><path d="M0 0c-80.153 0-145.129 64.976-145.129 145.129 0 80.153 64.976 145.129 145.129 145.129 80.153 0 145.129-64.976 145.129-145.129C145.129 64.976 80.153 0 0 0Z" style="fill:none;stroke:#000;stroke-width:20;stroke-linecap:round;stroke-linejoin:round;stroke-miterlimit:10;stroke-dasharray:none;stroke-opacity:1" transform="translate(310 67.133)"/><path d="M0 0h72c13.255 0 24 10.745 24 24v0c0 13.255-10.745 24-24 24H0c-13.255 0-24-10.745-24-24v0C-24 10.745-13.255 0 0 0Z" style="fill:none;stroke:#000;stroke-width:20;stroke-linecap:round;stroke-linejoin:round;stroke-miterlimit:10;stroke-dasharray:none;stroke-opacity:1" transform="translate(273.848 443.738)"/><path d="M0 0v39.476h-68.414V0" style="fill:none;stroke:#000;stroke-width:20;stroke-linecap:round;stroke-linejoin:round;stroke-miterlimit:10;stroke-dasharray:none;stroke-opacity:1" transform="translate(344.055 404.262)"/><path d="m0 0 51.373 51.373" style="fill:none;stroke:#000;stroke-width:20;stroke-linecap:round;stroke-linejoin:round;stroke-miterlimit:10;stroke-dasharray:none;stroke-opacity:1" transform="translate(328.955 231.217)"/><path d="M0 0c0-11.639 9.435-21.074 21.074-21.074 11.639 0 21.074 9.435 21.074 21.074 0 11.639-9.435 21.074-21.074 21.074C9.435 21.074 0 11.639 0 0" style="fill:#ff838e;fill-opacity:1;fill-rule:nonzero;stroke:none" transform="translate(288.926 212.262)"/><path d="M0 0c0-11.639 9.435-21.074 21.074-21.074 11.639 0 21.074 9.435 21.074 21.074 0 11.639-9.435 21.074-21.074 21.074C9.435 21.074 0 11.639 0 0Z" style="fill:none;stroke:#000;stroke-width:20;stroke-linecap:round;stroke-linejoin:round;stroke-miterlimit:10;stroke-dasharray:none;stroke-opacity:1" transform="translate(288.926 212.262)"/><path d="M0 0h-9.264" style="fill:none;stroke:#000;stroke-width:20;stroke-linecap:round;stroke-linejoin:round;stroke-miterlimit:10;stroke-dasharray:none;stroke-opacity:1" transform="translate(416.92 212.14)"/><path d="M0 0h9.264" style="fill:none;stroke:#000;stroke-width:20;stroke-linecap:round;stroke-linejoin:round;stroke-miterlimit:10;stroke-dasharray:none;stroke-opacity:1" transform="translate(203.082 212.384)"/><path d="M0 0v-9.264" style="fill:none;stroke:#000;stroke-width:20;stroke-linecap:round;stroke-linejoin:round;stroke-miterlimit:10;stroke-dasharray:none;stroke-opacity:1" transform="translate(310.123 319.181)"/><path d="M0 0v9.264" style="fill:none;stroke:#000;stroke-width:20;stroke-linecap:round;stroke-linejoin:round;stroke-miterlimit:10;stroke-dasharray:none;stroke-opacity:1" transform="translate(309.878 105.343)"/><path d="m0 0-27.149 27.149" style="fill:none;stroke:#000;stroke-width:20;stroke-linecap:round;stroke-linejoin:round;stroke-miterlimit:10;stroke-dasharray:none;stroke-opacity:1" transform="translate(294.185 228.078)"/><path d="m0 0 53.973 53.972" style="fill:none;stroke:#000;stroke-width:20;stroke-linecap:round;stroke-linejoin:round;stroke-miterlimit:10;stroke-dasharray:none;stroke-opacity:1" transform="translate(324.902 227.164)"/><path d="M0 0h-76.761" style="fill:none;stroke:#000;stroke-width:20;stroke-linecap:round;stroke-linejoin:round;stroke-miterlimit:10;stroke-dasharray:none;stroke-opacity:1" transform="translate(126.76 150.558)"/><path d="M0 0h-54.001" style="fill:none;stroke:#000;stroke-width:20;stroke-linecap:round;stroke-linejoin:round;stroke-miterlimit:10;stroke-dasharray:none;stroke-opacity:1" transform="translate(118 208.995)"/><path d="M0 0h-114.094" style="fill:none;stroke:#000;stroke-width:20;stroke-linecap:round;stroke-linejoin:round;stroke-miterlimit:10;stroke-dasharray:none;stroke-opacity:1" transform="translate(124.094 267.431)"/><path d="M0 0h-71.261" style="fill:none;stroke:#000;stroke-width:20;stroke-linecap:round;stroke-linejoin:round;stroke-miterlimit:10;stroke-dasharray:none;stroke-opacity:1" transform="translate(149.428 325.867)"/><path d="M0 0v0" style="fill:none;stroke:#000;stroke-width:20;stroke-linecap:round;stroke-linejoin:round;stroke-miterlimit:10;stroke-dasharray:none;stroke-opacity:1" transform="translate(10 150.558)"/></g></svg>