<svg width="682.667" height="682.667" xmlns="http://www.w3.org/2000/svg"><defs><clipPath clipPathUnits="userSpaceOnUse" id="a"><path d="M0 512h512V0H0Z"/></clipPath></defs><g clip-path="url(#a)" transform="matrix(1.33333 0 0 -1.33333 0 682.667)"><path d="M0 0c0-132.4-107.33-239.74-239.729-239.74-33.321 0-65.061 6.8-93.901 19.09a239.65 239.65 0 0 0-55.91 33.47 240.619 240.619 0 0 0-37.37 37.38 239.42 239.42 0 0 0-33.54 56.06C-472.7-64.94-479.47-33.26-479.47 0c0 132.4 107.33 239.74 239.741 239.74 65.229 0 124.369-26.06 167.599-68.33 22.42-21.92 40.56-48.21 53.03-77.49C-6.8 65.08 0 33.33 0 0" style="fill:#43a3f9;fill-opacity:1;fill-rule:nonzero;stroke:none" transform="translate(486.97 256)"/><path d="M0 0a432.61 432.61 0 0 0-3.56-7.19c-27.49-54.18-74.08-115.48-131.21-172.6-57.12-57.12-118.41-103.71-172.58-131.2-2.35-1.2-4.75-2.39-7.18-3.58a239.65 239.65 0 0 0-55.91 33.47c2.53.75 5.13 1.59 7.79 2.51 9.89 3.43 20.61 8.07 31.86 13.77 49.45 25.1 106.07 68.3 159.4 121.65C-118.03-89.83-74.83-33.22-49.73 16.24c1.89 3.74 3.68 7.44 5.35 11.09l-18.69 7.1a18.678 18.678 0 0 0-11.9 15.01 18.67 18.67 0 0 0 7.55 17.6l14.39 10.45C-30.61 55.57-12.47 29.28 0 0" style="fill:#1685fb;fill-opacity:1;fill-rule:nonzero;stroke:none" transform="translate(467.87 349.92)"/><path d="M0 0c0-13.191-5.345-25.149-13.992-33.795-8.657-8.646-20.592-13.992-33.795-13.992h-25.466c-24.838 26.883-43.598 59.467-54.088 95.574h79.554C-21.393 47.787 0 26.383 0 0" style="fill:#00e8a3;fill-opacity:1;fill-rule:nonzero;stroke:none" transform="translate(144.344 141.167)"/><path d="M0 0c.155-26.441-22.189-48.073-48.631-48.073h-18.792c-6.138 0-11.114-4.975-11.114-11.113V-90.67c0-26.392-21.395-47.787-47.787-47.787h-67.224C-188.925-60.675-147.217 7.127-85.86 47.501h38.074c13.191 0 25.138-5.345 33.784-13.991C-5.407 24.926-.077 13.078 0 0" style="fill:#00e8a3;fill-opacity:1;fill-rule:nonzero;stroke:none" transform="translate(201.482 408.904)"/><path d="M0 0c0-55.44-18.81-106.49-50.42-147.1h-21.07c-19.55 0-37.23 7.92-50.03 20.72-12.81 12.8-20.73 30.49-20.73 50.03v39.68c0 6.13-4.97 11.11-11.11 11.11h-35.829c-19.54 0-37.231 7.91-50.031 20.71-12.8 12.81-20.719 30.5-20.719 50.04 0 39.08 31.679 70.75 70.75 70.75H-29.85A235.66 235.66 0 0 0-19.1 93.93v-.01C-6.8 65.08 0 33.33 0 0" style="fill:#00e8a3;fill-opacity:1;fill-rule:nonzero;stroke:none" transform="translate(486.97 256)"/><path d="M0 0v-.01A432.61 432.61 0 0 0-3.56-7.2c-25.6-50.46-67.77-107.09-119.59-160.77v37.37c0 6.13-4.97 11.11-11.11 11.11h-14.29c42.82 46.13 77.41 93.53 98.82 135.72.98 1.94 1.93 3.86 2.86 5.78h36.12A235.66 235.66 0 0 0 0 0" style="fill:#19c88d;fill-opacity:1;fill-rule:nonzero;stroke:none" transform="translate(467.87 349.93)"/><path d="M0 0h-159.342c-11.077 0-21.557-2.55-30.892-7.088" style="fill:none;stroke:#000;stroke-width:15;stroke-linecap:round;stroke-linejoin:round;stroke-miterlimit:10;stroke-dasharray:none;stroke-opacity:1" transform="translate(457.122 371.945)"/><path d="M0 0c-8.393-11.632-13.352-25.907-13.352-41.351 0-19.537 7.913-37.229 20.715-50.031 12.803-12.803 30.495-20.716 50.032-20.716h35.829c6.138 0 11.113-4.975 11.113-11.113v-39.674c0-19.537 7.913-37.23 20.727-50.032 12.802-12.803 30.483-20.715 50.032-20.715h21.071" style="fill:none;stroke:#000;stroke-width:15;stroke-linecap:round;stroke-linejoin:round;stroke-miterlimit:10;stroke-dasharray:none;stroke-opacity:1" transform="translate(240.385 342.537)"/><path d="M0 0h76.22c26.394 0 47.787-21.404 47.787-47.787 0-13.192-5.345-25.15-13.991-33.796-8.658-8.646-20.593-13.991-33.796-13.991H54.088" style="fill:none;stroke:#000;stroke-width:15;stroke-linecap:round;stroke-linejoin:round;stroke-miterlimit:10;stroke-dasharray:none;stroke-opacity:1" transform="translate(20.337 188.954)"/><path d="M0 0h34.74c13.192 0 25.138-5.345 33.784-13.992 8.595-8.583 13.926-20.431 14.002-33.509.155-26.442-22.189-48.073-48.631-48.073H15.103c-6.138 0-11.113-4.976-11.113-11.114v-31.483c0-26.392-21.395-47.787-47.787-47.787h-63.891" style="fill:none;stroke:#000;stroke-width:15;stroke-linecap:round;stroke-linejoin:round;stroke-miterlimit:10;stroke-dasharray:none;stroke-opacity:1" transform="translate(118.956 456.406)"/><path d="M0 0c0-10.639-8.625-19.263-19.263-19.263-10.639 0-19.263 8.624-19.263 19.263 0 10.639 8.624 19.263 19.263 19.263C-8.625 19.263 0 10.639 0 0" style="fill:#fd6096;fill-opacity:1;fill-rule:nonzero;stroke:none" transform="translate(339.016 304.157)"/><path d="M0 0c0-10.639-8.625-19.263-19.263-19.263-10.639 0-19.263 8.624-19.263 19.263 0 10.639 8.624 19.263 19.263 19.263C-8.625 19.263 0 10.639 0 0Z" style="fill:none;stroke:#000;stroke-width:15;stroke-linecap:round;stroke-linejoin:round;stroke-miterlimit:10;stroke-dasharray:none;stroke-opacity:1" transform="translate(339.016 304.157)"/><path d="M0 0c0-10.639-8.624-19.263-19.263-19.263-10.638 0-19.263 8.624-19.263 19.263 0 10.639 8.625 19.263 19.263 19.263C-8.624 19.263 0 10.639 0 0" style="fill:#fd6096;fill-opacity:1;fill-rule:nonzero;stroke:none" transform="translate(220.746 182.649)"/><path d="M0 0c0-10.639-8.624-19.263-19.263-19.263-10.638 0-19.263 8.624-19.263 19.263 0 10.639 8.625 19.263 19.263 19.263C-8.624 19.263 0 10.639 0 0Z" style="fill:none;stroke:#000;stroke-width:15;stroke-linecap:round;stroke-linejoin:round;stroke-miterlimit:10;stroke-dasharray:none;stroke-opacity:1" transform="translate(220.746 182.649)"/><path d="m0 0-18.142 82.339c-1.039 4.715-6.571 6.815-10.477 3.979l-68.219-49.55c-4.308-3.129-3.419-9.791 1.559-11.681l30.402-11.543c-2.98-7.418-6.519-15.204-10.621-23.295-25.649-50.543-69.636-108.244-123.869-162.465-54.221-54.233-111.922-98.22-162.465-123.869-11.835-6.001-23.038-10.824-33.351-14.403-28.049-9.746-49.465-10.357-58.878-.955-9.402 9.412-8.791 30.828.956 58.878a237.86 237.86 0 0 0-18.004 29.939c-28.127-62.946-17.403-93.641-2.589-108.455 8.079-8.09 20.892-14.947 41.095-14.947 29.267 0 57.678 12.144 83.352 25.172 53.087 26.938 113.288 72.747 169.533 128.991C-123.474-135.62-77.665-75.42-50.727-22.331c4.308 8.495 8.323 17.155 11.884 25.99L-8.918-7.703C-3.941-9.593 1.146-5.2 0 0" style="fill:#fdc142;fill-opacity:1;fill-rule:nonzero;stroke:none" transform="translate(504.337 370.483)"/><path d="M0 0c-28.127-62.945-17.403-93.64-2.589-108.454 8.079-8.09 20.892-14.947 41.095-14.947 29.266-.001 57.678 12.143 83.351 25.171 53.088 26.938 113.289 72.748 169.534 128.992 56.244 56.244 102.053 116.445 128.991 169.533 4.307 8.495 8.323 17.156 11.884 25.991l29.924-11.363c4.978-1.889 10.064 2.504 8.919 7.703l-18.142 82.34c-1.039 4.714-6.571 6.815-10.477 3.978l-68.219-49.549c-4.308-3.129-3.419-9.791 1.559-11.682l30.401-11.543c-2.98-7.417-6.518-15.203-10.62-23.295-25.65-50.543-69.636-108.243-123.869-162.465C217.521-3.823 159.82-47.809 109.277-73.458 97.441-79.46 86.239-84.283 75.926-87.861c-28.05-9.747-49.465-10.358-58.878-.956-9.402 9.413-8.791 30.828.956 58.878" style="fill:none;stroke:#000;stroke-width:15;stroke-linecap:round;stroke-linejoin:round;stroke-miterlimit:10;stroke-dasharray:none;stroke-opacity:1" transform="translate(33.228 147.856)"/><path d="M0 0c32.182-16.058 68.482-25.091 106.893-25.091 27.103 0 53.152 4.504 77.448 12.793" style="fill:none;stroke:#000;stroke-width:15;stroke-linecap:round;stroke-linejoin:round;stroke-miterlimit:10;stroke-dasharray:none;stroke-opacity:1" transform="translate(140.344 41.354)"/><path d="M0 0c-28.839 12.29-60.577 19.098-93.905 19.098-132.403 0-239.737-107.334-239.737-239.737 0-80.298 39.478-151.377 100.084-194.883" style="fill:none;stroke:#000;stroke-width:15;stroke-linecap:round;stroke-linejoin:round;stroke-miterlimit:10;stroke-dasharray:none;stroke-opacity:1" transform="translate(341.142 476.64)"/><path d="M0 0a240.864 240.864 0 0 1-50.395 41.075" style="fill:none;stroke:#000;stroke-width:15;stroke-linecap:round;stroke-linejoin:round;stroke-miterlimit:10;stroke-dasharray:none;stroke-opacity:1" transform="translate(422.414 419.66)"/><path d="M0 0c77.442 39.742 130.432 120.394 130.432 213.423 0 38.586-9.116 75.041-25.312 107.331" style="fill:none;stroke:#000;stroke-width:15;stroke-linecap:round;stroke-linejoin:round;stroke-miterlimit:10;stroke-dasharray:none;stroke-opacity:1" transform="translate(356.541 42.577)"/></g></svg>