<svg xml:space="preserve" width="682.667" height="682.667" xmlns="http://www.w3.org/2000/svg"><defs><clipPath clipPathUnits="userSpaceOnUse" id="a"><path d="M0 512h512V0H0Z"/></clipPath></defs><g clip-path="url(#a)" transform="matrix(1.33333 0 0 -1.33333 0 682.667)"><path d="m0 0-64.61-111.9-9.61-16.64a34.987 34.987 0 0 0-30.31-17.5h-148.42c-12.51 0-24.06 6.67-30.31 17.5l-9.61 16.64L-357.48 0a35.01 35.01 0 0 0 0 35l63.03 109.16 11.19 19.38a34.987 34.987 0 0 0 30.31 17.5h148.42c12.51 0 24.06-6.67 30.31-17.5l11.19-19.38L0 35A35.01 35.01 0 0 0 0 0" style="fill:#99e6fc;fill-opacity:1;fill-rule:nonzero;stroke:none" transform="translate(434.74 238.5)"/><path d="m0 0-9.61 16.64-64.61 111.9a35.01 35.01 0 0 0 0 35l63.03 109.16L0 292.08a34.987 34.987 0 0 0 30.31 17.5h-25c-12.51 0-24.06-6.67-30.31-17.5l-11.19-19.38-63.03-109.16a35.01 35.01 0 0 1 0-35l64.61-111.9L-25 0A34.987 34.987 0 0 1 5.31-17.5h25C17.8-17.5 6.25-10.83 0 0" style="fill:#62dbfb;fill-opacity:1;fill-rule:nonzero;stroke:none" transform="translate(176.48 109.96)"/><path d="M0 0h-32a4 4 0 0 0-4 4v32a4 4 0 0 0 4 4H0a4 4 0 0 0 4-4V4a4 4 0 0 0-4-4" style="fill:#7ca1b1;fill-opacity:1;fill-rule:nonzero;stroke:none" transform="translate(43.5 464.5)"/><path d="M0 0h-32a4 4 0 0 0-4 4v32a4 4 0 0 0 4 4H0a4 4 0 0 0 4-4V4a4 4 0 0 0-4-4" style="fill:#7ca1b1;fill-opacity:1;fill-rule:nonzero;stroke:none" transform="translate(272 464.5)"/><path d="M0 0h-32a4 4 0 0 0-4 4v32a4 4 0 0 0 4 4H0a4 4 0 0 0 4-4V4a4 4 0 0 0-4-4" style="fill:#7ca1b1;fill-opacity:1;fill-rule:nonzero;stroke:none" transform="translate(500.5 464.5)"/><path d="M0 0h-32a4 4 0 0 0-4 4v32a4 4 0 0 0 4 4H0a4 4 0 0 0 4-4V4a4 4 0 0 0-4-4" style="fill:#7ca1b1;fill-opacity:1;fill-rule:nonzero;stroke:none" transform="translate(43.5 7.5)"/><path d="M0 0h-32a4 4 0 0 0-4 4v32a4 4 0 0 0 4 4H0a4 4 0 0 0 4-4V4a4 4 0 0 0-4-4" style="fill:#7ca1b1;fill-opacity:1;fill-rule:nonzero;stroke:none" transform="translate(43.5 7.5)"/><path d="M0 0h-32a4 4 0 0 0-4 4v32a4 4 0 0 0 4 4H0a4 4 0 0 0 4-4V4a4 4 0 0 0-4-4" style="fill:#7ca1b1;fill-opacity:1;fill-rule:nonzero;stroke:none" transform="translate(43.5 236)"/><path d="M0 0h-32a4 4 0 0 0-4 4v32a4 4 0 0 0 4 4H0a4 4 0 0 0 4-4V4a4 4 0 0 0-4-4" style="fill:#7ca1b1;fill-opacity:1;fill-rule:nonzero;stroke:none" transform="translate(43.5 236)"/><path d="M0 0h-32a4 4 0 0 0-4 4v32a4 4 0 0 0 4 4H0a4 4 0 0 0 4-4V4a4 4 0 0 0-4-4" style="fill:#7ca1b1;fill-opacity:1;fill-rule:nonzero;stroke:none" transform="translate(272 7.5)"/><path d="M0 0h-32a4 4 0 0 0-4 4v32a4 4 0 0 0 4 4H0a4 4 0 0 0 4-4V4a4 4 0 0 0-4-4" style="fill:#7ca1b1;fill-opacity:1;fill-rule:nonzero;stroke:none" transform="translate(500.5 7.5)"/><path d="M0 0h-32a4 4 0 0 0-4 4v32a4 4 0 0 0 4 4H0a4 4 0 0 0 4-4V4a4 4 0 0 0-4-4" style="fill:#7ca1b1;fill-opacity:1;fill-rule:nonzero;stroke:none" transform="translate(500.5 236)"/><path d="M0 0h-231.42l11.19 19.38a34.987 34.987 0 0 0 30.31 17.5H-41.5c12.51 0 24.06-6.67 30.31-17.5z" style="fill:#27a5fe;fill-opacity:1;fill-rule:nonzero;stroke:none" transform="translate(371.71 382.66)"/><path d="m0 0-9.61-16.64a34.987 34.987 0 0 0-30.31-17.5h-148.42c-12.51 0-24.06 6.67-30.31 17.5L-228.26 0Z" style="fill:#27a5fe;fill-opacity:1;fill-rule:nonzero;stroke:none" transform="translate(370.13 126.6)"/><path d="M0 0h-84.703c-7.022 0-13.085 5.396-13.394 12.412C-98.426 19.859-92.485 26-85.11 26H-.408c7.023 0 13.086-5.396 13.395-12.412C13.315 6.141 7.375 0 0 0" style="fill:#27a5fe;fill-opacity:1;fill-rule:nonzero;stroke:none" transform="translate(304.11 320.225)"/><path d="M0 0h-84.703c-7.022 0-13.085 5.396-13.394 12.412C-98.426 19.859-92.485 26-85.11 26H-.408c7.023 0 13.086-5.396 13.395-12.412C13.315 6.141 7.375 0 0 0" style="fill:#27a5fe;fill-opacity:1;fill-rule:nonzero;stroke:none" transform="translate(304.11 164.41)"/><path d="M0 0h-25c-12.51 0-24.06-6.67-30.31-17.5L-66.5-36.88h25l11.19 19.38A34.987 34.987 0 0 0 0 0" style="fill:#0593fc;fill-opacity:1;fill-rule:nonzero;stroke:none" transform="translate(206.79 419.54)"/><path d="m0 0-9.61 16.64h-25L-25 0A34.987 34.987 0 0 1 5.31-17.5h25C17.8-17.5 6.25-10.83 0 0" style="fill:#0593fc;fill-opacity:1;fill-rule:nonzero;stroke:none" transform="translate(176.48 109.96)"/><path d="M0 0c-.328 7.447 5.612 13.588 12.987 13.588h-25C-19.388 13.588-25.328 7.447-25 0c.309-7.016 6.372-12.412 13.395-12.412h25C6.372-12.412.309-7.016 0 0" style="fill:#0593fc;fill-opacity:1;fill-rule:nonzero;stroke:none" transform="translate(231.013 332.636)"/><path d="M0 0c-.328 7.447 5.612 13.588 12.987 13.588h-25C-19.388 13.588-25.328 7.447-25 0c.309-7.016 6.372-12.412 13.395-12.412h25C6.372-12.412.309-7.016 0 0" style="fill:#0593fc;fill-opacity:1;fill-rule:nonzero;stroke:none" transform="translate(231.013 176.822)"/><path d="M0 0h-32a4 4 0 0 0-4 4v32a4 4 0 0 0 4 4H0a4 4 0 0 0 4-4V4a4 4 0 0 0-4-4Z" style="fill:none;stroke:#000;stroke-width:15;stroke-linecap:round;stroke-linejoin:round;stroke-miterlimit:10;stroke-dasharray:none;stroke-opacity:1" transform="translate(43.5 464.5)"/><path d="M0 0h-32a4 4 0 0 0-4 4v32a4 4 0 0 0 4 4H0a4 4 0 0 0 4-4V4a4 4 0 0 0-4-4Z" style="fill:none;stroke:#000;stroke-width:15;stroke-linecap:round;stroke-linejoin:round;stroke-miterlimit:10;stroke-dasharray:none;stroke-opacity:1" transform="translate(272 464.5)"/><path d="M0 0h-32a4 4 0 0 0-4 4v32a4 4 0 0 0 4 4H0a4 4 0 0 0 4-4V4a4 4 0 0 0-4-4Z" style="fill:none;stroke:#000;stroke-width:15;stroke-linecap:round;stroke-linejoin:round;stroke-miterlimit:10;stroke-dasharray:none;stroke-opacity:1" transform="translate(500.5 464.5)"/><path d="M0 0h-32a4 4 0 0 0-4 4v32a4 4 0 0 0 4 4H0a4 4 0 0 0 4-4V4a4 4 0 0 0-4-4Z" style="fill:none;stroke:#000;stroke-width:15;stroke-linecap:round;stroke-linejoin:round;stroke-miterlimit:10;stroke-dasharray:none;stroke-opacity:1" transform="translate(43.5 7.5)"/><path d="M0 0h-32a4 4 0 0 0-4 4v32a4 4 0 0 0 4 4H0a4 4 0 0 0 4-4V4a4 4 0 0 0-4-4Z" style="fill:none;stroke:#000;stroke-width:15;stroke-linecap:round;stroke-linejoin:round;stroke-miterlimit:10;stroke-dasharray:none;stroke-opacity:1" transform="translate(43.5 7.5)"/><path d="M0 0h-32a4 4 0 0 0-4 4v32a4 4 0 0 0 4 4H0a4 4 0 0 0 4-4V4a4 4 0 0 0-4-4Z" style="fill:none;stroke:#000;stroke-width:15;stroke-linecap:round;stroke-linejoin:round;stroke-miterlimit:10;stroke-dasharray:none;stroke-opacity:1" transform="translate(43.5 236)"/><path d="M0 0h-32a4 4 0 0 0-4 4v32a4 4 0 0 0 4 4H0a4 4 0 0 0 4-4V4a4 4 0 0 0-4-4Z" style="fill:none;stroke:#000;stroke-width:15;stroke-linecap:round;stroke-linejoin:round;stroke-miterlimit:10;stroke-dasharray:none;stroke-opacity:1" transform="translate(43.5 236)"/><path d="M0 0h-32a4 4 0 0 0-4 4v32a4 4 0 0 0 4 4H0a4 4 0 0 0 4-4V4a4 4 0 0 0-4-4Z" style="fill:none;stroke:#000;stroke-width:15;stroke-linecap:round;stroke-linejoin:round;stroke-miterlimit:10;stroke-dasharray:none;stroke-opacity:1" transform="translate(272 7.5)"/><path d="M0 0h-32a4 4 0 0 0-4 4v32a4 4 0 0 0 4 4H0a4 4 0 0 0 4-4V4a4 4 0 0 0-4-4Z" style="fill:none;stroke:#000;stroke-width:15;stroke-linecap:round;stroke-linejoin:round;stroke-miterlimit:10;stroke-dasharray:none;stroke-opacity:1" transform="translate(500.5 7.5)"/><path d="M0 0h-32a4 4 0 0 0-4 4v32a4 4 0 0 0 4 4H0a4 4 0 0 0 4-4V4a4 4 0 0 0-4-4Z" style="fill:none;stroke:#000;stroke-width:15;stroke-linecap:round;stroke-linejoin:round;stroke-miterlimit:10;stroke-dasharray:none;stroke-opacity:1" transform="translate(500.5 236)"/><path d="M0 0h-188.5" style="fill:none;stroke:#000;stroke-width:15;stroke-linecap:round;stroke-linejoin:round;stroke-miterlimit:10;stroke-dasharray:none;stroke-opacity:1" transform="translate(236 27.5)"/><path d="M0 0h-188.5" style="fill:none;stroke:#000;stroke-width:15;stroke-linecap:round;stroke-linejoin:round;stroke-miterlimit:10;stroke-dasharray:none;stroke-opacity:1" transform="translate(464.5 27.5)"/><path d="M0 0v188.5" style="fill:none;stroke:#000;stroke-width:15;stroke-linecap:round;stroke-linejoin:round;stroke-miterlimit:10;stroke-dasharray:none;stroke-opacity:1" transform="translate(484.5 47.5)"/><path d="M0 0v188.5" style="fill:none;stroke:#000;stroke-width:15;stroke-linecap:round;stroke-linejoin:round;stroke-miterlimit:10;stroke-dasharray:none;stroke-opacity:1" transform="translate(484.5 276)"/><path d="M0 0h-188.5" style="fill:none;stroke:#000;stroke-width:15;stroke-linecap:round;stroke-linejoin:round;stroke-miterlimit:10;stroke-dasharray:none;stroke-opacity:1" transform="translate(464.5 484.5)"/><path d="M0 0h-188.5" style="fill:none;stroke:#000;stroke-width:15;stroke-linecap:round;stroke-linejoin:round;stroke-miterlimit:10;stroke-dasharray:none;stroke-opacity:1" transform="translate(236 484.5)"/><path d="M0 0v188.5" style="fill:none;stroke:#000;stroke-width:15;stroke-linecap:round;stroke-linejoin:round;stroke-miterlimit:10;stroke-dasharray:none;stroke-opacity:1" transform="translate(27.5 276)"/><path d="M0 0v188.5" style="fill:none;stroke:#000;stroke-width:15;stroke-linecap:round;stroke-linejoin:round;stroke-miterlimit:10;stroke-dasharray:none;stroke-opacity:1" transform="translate(27.5 47.5)"/><path d="m0 0 20.64 35.75a35.01 35.01 0 0 1 0 35l-63.03 109.16-11.19 19.38a34.987 34.987 0 0 1-30.31 17.5h-148.42c-12.51 0-24.06-6.67-30.31-17.5l-11.19-19.38-63.03-109.16a35.01 35.01 0 0 1 0-35l64.61-111.9 9.61-16.64a34.987 34.987 0 0 1 30.31-17.5h148.42c12.51 0 24.06 6.67 30.31 17.5l9.61 16.64 25.85 44.78" style="fill:none;stroke:#000;stroke-width:15;stroke-linecap:round;stroke-linejoin:round;stroke-miterlimit:10;stroke-dasharray:none;stroke-opacity:1" transform="translate(414.1 202.75)"/><path d="M0 0h-56.36" style="fill:none;stroke:#000;stroke-width:15;stroke-linecap:round;stroke-linejoin:round;stroke-miterlimit:10;stroke-dasharray:none;stroke-opacity:1" transform="translate(196.65 382.66)"/><path d="M0 0h-140.06" style="fill:none;stroke:#000;stroke-width:15;stroke-linecap:round;stroke-linejoin:round;stroke-miterlimit:10;stroke-dasharray:none;stroke-opacity:1" transform="translate(371.71 382.66)"/><path d="M0 0h-228.26" style="fill:none;stroke:#000;stroke-width:15;stroke-linecap:round;stroke-linejoin:round;stroke-miterlimit:10;stroke-dasharray:none;stroke-opacity:1" transform="translate(370.13 126.6)"/><path d="M0 0v-54.554c0-.546.437-.993.983-1 3.978-.051 18.476.03 18.476.03" style="fill:none;stroke:#000;stroke-width:15;stroke-linecap:round;stroke-linejoin:round;stroke-miterlimit:10;stroke-dasharray:none;stroke-opacity:1" transform="translate(127.32 283.785)"/><path d="M0 0c-5.019 3.391-11.205 5.185-17.83 4.653C-31.393 3.565-42.302-7.47-43.25-21.044c-1.135-16.248 11.71-29.781 27.715-29.781 15.041 0 23.64 11.951 23.975 26.875a.897.897 0 0 1-.898.91H-8.173" style="fill:none;stroke:#000;stroke-width:15;stroke-linecap:round;stroke-linejoin:round;stroke-miterlimit:10;stroke-dasharray:none;stroke-opacity:1" transform="translate(295.67 279.04)"/><path d="M0 0c0-15.345-12.44-27.785-27.785-27.785-15.346 0-27.785 12.44-27.785 27.785s12.439 27.785 27.785 27.785C-12.44 27.785 0 15.345 0 0Z" style="fill:none;stroke:#000;stroke-width:15;stroke-linecap:round;stroke-linejoin:round;stroke-miterlimit:10;stroke-dasharray:none;stroke-opacity:1" transform="translate(384.68 256)"/><path d="M0 0c0-15.345-12.44-27.785-27.785-27.785-15.346 0-27.785 12.44-27.785 27.785s12.439 27.785 27.785 27.785C-12.44 27.785 0 15.345 0 0Z" style="fill:none;stroke:#000;stroke-width:15;stroke-linecap:round;stroke-linejoin:round;stroke-miterlimit:10;stroke-dasharray:none;stroke-opacity:1" transform="translate(227.35 256)"/><path d="M0 0h-84.703c-7.022 0-13.085 5.396-13.394 12.412C-98.426 19.859-92.485 26-85.11 26H-.408c7.023 0 13.086-5.396 13.395-12.412C13.315 6.141 7.375 0 0 0Z" style="fill:none;stroke:#000;stroke-width:15;stroke-linecap:round;stroke-linejoin:round;stroke-miterlimit:10;stroke-dasharray:none;stroke-opacity:1" transform="translate(304.11 320.225)"/><path d="M0 0h-84.703c-7.022 0-13.085 5.396-13.394 12.412C-98.426 19.859-92.485 26-85.11 26H-.408c7.023 0 13.086-5.396 13.395-12.412C13.315 6.141 7.375 0 0 0Z" style="fill:none;stroke:#000;stroke-width:15;stroke-linecap:round;stroke-linejoin:round;stroke-miterlimit:10;stroke-dasharray:none;stroke-opacity:1" transform="translate(304.11 164.41)"/></g></svg>