<svg height="512pt" viewBox="-11 0 512 512" width="512pt" xmlns="http://www.w3.org/2000/svg"><path d="m245 21.996094c-135.308594 0-245 109.691406-245 245.003906 0 50.882812 15.515625 98.140625 42.066406 137.304688l173.960938 105.980468c9.503906 1.121094 19.167968 1.714844 28.972656 1.714844 135.3125 0 245.003906-109.691406 245.003906-245 0-135.3125-109.691406-245.003906-245.003906-245.003906zm0 0" fill="#15d4f0"/><path d="m244.4375 511.992188h1.132812c28.808594-.0625 56.441407-5.109376 82.105469-14.304688 11.480469-10.28125 18.714844-25.210938 18.710938-41.839844l-.019531-399.710937c0-31.003907-25.136719-56.136719-56.140626-56.136719l-193.15625.0078125c-31.007812.0039063-56.140624 25.1367185-56.136718 56.1445315l.015625 346.472656c43.808593 65.78125 118.570312 109.175781 203.488281 109.367188zm0 0" fill="#6244bd"/><path d="m97.070312.0078125c-31.007812.0039063-56.140624 25.1367185-56.136718 56.1445315l.015625 346.46875c16.164062 24.273437 36.542969 45.488281 60.089843 62.621094-.515624-3.050782-.796874-6.183594-.796874-9.378907l-.015626-399.710937c-.003906-31.007813 25.128907-56.1406252 56.132813-56.1445315v-.00390625c-.035156 0 .039063-.00390625 0-.00390625zm0 0" fill="#4e2aa5"/><path d="m128.644531 482.65625 161.605469-.007812c14.800781-.003907 26.796875-12 26.796875-26.796876l-.019531-399.714843c-.003906-14.796875-12-26.792969-26.796875-26.792969h-35.820313c-3.671875 0-7.003906 2.109375-8.621094 5.410156-3.53125 7.214844-10.941406 12.183594-19.519531 12.183594l-65.238281.003906c-8.574219 0-15.984375-4.96875-19.519531-12.183594-1.613281-3.300781-4.949219-5.40625-8.621094-5.40625h-35.820313c-14.800781 0-26.796874 12-26.796874 26.796876l.019531 382.589843c17.085937 17.382813 36.738281 32.230469 58.351562 43.917969zm0 0" fill="#e6fcff"/><path d="m97.070312 29.351562c-14.800781 0-26.796874 12-26.796874 26.796876l.019531 382.589843c9.488281 9.652344 19.765625 18.515625 30.734375 26.496094-.511719-3.046875-.785156-6.175781-.785156-9.371094l-.019532-399.710937c0-9.707032 2.464844-18.835938 6.796875-26.800782zm0 0" fill="#ccebff"/><path d="m278.144531 176.339844h-168.988281c-4.933594 0-8.933594 4-8.933594 8.933594v108.035156c0 4.933594 4 8.933594 8.933594 8.933594h168.988281c4.933594 0 8.933594-4 8.933594-8.933594v-108.039063c0-4.929687-4-8.929687-8.933594-8.929687zm0 0" fill="#5f83fa"/><path d="m151.574219 293.308594v-108.039063c0-4.929687 3.996093-8.929687 8.933593-8.929687h-51.351562c-4.933594 0-8.933594 4-8.933594 8.929687v108.039063c0 4.933594 4 8.929687 8.933594 8.929687h51.351562c-4.9375 0-8.933593-3.996093-8.933593-8.929687zm0 0" fill="#4070ea"/><path d="m212.984375 434.195312h-38.667969c-8.101562 0-14.671875-6.570312-14.671875-14.671874 0-8.105469 6.570313-14.671876 14.671875-14.671876h38.667969c8.105469 0 14.671875 6.566407 14.671875 14.671876 0 8.101562-6.566406 14.671874-14.671875 14.671874zm0 0" fill="#a5c013"/><path d="m190.894531 419.523438c0-8.105469 6.570313-14.671876 14.671875-14.671876h-31.25c-8.101562 0-14.671875 6.566407-14.671875 14.671876 0 8.101562 6.570313 14.671874 14.671875 14.671874h31.25c-8.105468 0-14.671875-6.570312-14.671875-14.671874zm0 0" fill="#8dae16"/><path d="m100.222656 204.191406h186.855469v35.097656h-186.855469zm0 0" fill="#6244bd"/><path d="m100.222656 204.191406h51.351563v35.097656h-51.351563zm0 0" fill="#4e2aa5"/><path d="m274.796875 109.242188h-130.144531c-8.101563 0-14.671875-6.566407-14.671875-14.671876 0-8.101562 6.566406-14.671874 14.671875-14.671874h130.144531c8.105469 0 14.671875 6.570312 14.671875 14.671874 0 8.105469-6.570312 14.671876-14.671875 14.671876zm0 0" fill="#ccebff"/><path d="m192.484375 94.570312c0-8.101562 6.566406-14.671874 14.671875-14.671874h-62.503906c-8.101563 0-14.671875 6.570312-14.671875 14.671874 0 8.105469 6.566406 14.671876 14.671875 14.671876h62.503906c-8.105469 0-14.671875-6.566407-14.671875-14.671876zm0 0" fill="#b8dff4"/><path d="m144.652344 109.242188h-32.148438c-8.101562 0-14.671875-6.566407-14.671875-14.671876 0-8.101562 6.570313-14.671874 14.671875-14.671874h32.148438c8.101562 0 14.671875 6.570312 14.671875 14.671874 0 8.105469-6.570313 14.671876-14.671875 14.671876zm0 0" fill="#fe4675"/><path d="m129.761719 94.570312c0-8.101562 6.566406-14.671874 14.671875-14.671874h-31.929688c-8.101562 0-14.671875 6.570312-14.671875 14.671874 0 8.105469 6.570313 14.671876 14.671875 14.671876h31.929688c-8.105469 0-14.671875-6.566407-14.671875-14.671876zm0 0" fill="#ec3969"/><path d="m272.226562 176.339844v-25.808594c0-4.148438-3.363281-7.511719-7.511718-7.511719h-142.128906c-4.148438 0-7.515626 3.363281-7.515626 7.511719v25.808594zm0 0" fill="#4070ea"/><path d="m173.9375 143.019531h-51.351562c-4.148438 0-7.515626 3.363281-7.515626 7.511719v25.808594h51.351563v-25.808594c0-4.148438 3.363281-7.511719 7.515625-7.511719zm0 0" fill="#205dd9"/><g fill="#ccebff"><path d="m156.734375 350.148438h-11.59375c-4.5 0-8.148437-3.648438-8.148437-8.152344 0-4.5 3.648437-8.148438 8.148437-8.148438h11.59375c4.5 0 8.152344 3.648438 8.152344 8.148438 0 4.503906-3.652344 8.152344-8.152344 8.152344zm0 0"/><path d="m199.445312 350.148438h-11.589843c-4.503907 0-8.152344-3.648438-8.152344-8.152344 0-4.5 3.648437-8.148438 8.152344-8.148438h11.589843c4.503907 0 8.152344 3.648438 8.152344 8.148438 0 4.503906-3.648437 8.152344-8.152344 8.152344zm0 0"/><path d="m242.160156 350.148438h-11.59375c-4.503906 0-8.152344-3.648438-8.152344-8.152344 0-4.5 3.648438-8.148438 8.152344-8.148438h11.59375c4.5 0 8.148438 3.648438 8.148438 8.148438 0 4.503906-3.648438 8.152344-8.148438 8.152344zm0 0"/></g><path d="m435.285156 357.9375c-28.355468-49.113281-91.15625-65.941406-140.269531-37.585938-49.109375 28.359376-65.9375 91.15625-37.582031 140.269532 28.355468 49.113281 91.15625 65.9375 140.269531 37.582031 49.109375-28.355469 65.9375-91.15625 37.582031-140.265625zm0 0" fill="#a5c013"/><path d="m358.785156 464.972656c-10.503906-18.195312-8.597656-40.136718 3.078125-56.058594l-5.097656-8.835937c-19.625 2.152344-41.292969-10.125-51.796875-28.320313-11.046875-19.132812-8.375-42.421874 4.960938-58.480468-5.070313 1.929687-10.054688 4.28125-14.90625 7.082031-49.113282 28.355469-65.9375 91.15625-37.582032 140.269531 28.355469 49.113282 91.15625 65.941406 140.269532 37.585938 4.171874-2.40625 8.101562-5.070313 11.800781-7.945313-19.828125 2.429688-40.109375-6.90625-50.726563-25.296875zm0 0" fill="#8dae16"/><path d="m335.703125 456.5625c-3.890625 0-7.625-1.546875-10.375-4.296875l-31.207031-31.210937c-5.726563-5.726563-5.726563-15.019532 0-20.746094 5.730468-5.730469 15.023437-5.730469 20.75 0l20.832031 20.832031 45.195313-45.195313c5.730468-5.730468 15.019531-5.730468 20.75 0 5.730468 5.730469 5.730468 15.019532 0 20.75l-55.570313 55.570313c-2.75 2.75-6.484375 4.296875-10.375 4.296875zm0 0" fill="#e6fcff"/></svg>