<svg height="511pt" viewBox="1 -29 512 511" width="511pt" xmlns="http://www.w3.org/2000/svg"><path d="M241 243.973h30v60.047h-30zm0 0" fill="#87a0af"/><path d="m256 289.02-10.008 15 10.008 15h52.957v45.046h30V319.02h105.91v45.046h30V289.02zm0 0" fill="#9bb9c3"/><path d="M37.133 289.02v75.046h30V319.02h105.91v45.046h30V319.02H256v-30zm0 0" fill="#b4d2d7"/><path d="M0 349.066h104.266v104.262H0zM135.91 349.066h104.266v104.262H135.91zm0 0" fill="#0b799d"/><path d="M271.824 349.066H376.09v104.262H271.824zM407.734 349.066H512v104.262H407.734zm0 0" fill="#09607d"/><path d="M438.805 127.781V.5H256l-20.016 147.297zm0 0" fill="#2d2d2d"/><path d="M348.742 49.14h30.028v30h-30.028zm0 0" fill="#ff5b5b"/><path d="M256 .5H73.195v127.281L256 147.797zm0 0" fill="#464646"/><path d="M133.23 49.14h70.06v30h-70.06zm0 0" fill="#d6fc7e"/><path d="M438.805 127.781H256l-20.016 65.594L256 258.973h182.805zm0 0" fill="#464646"/><path d="M73.195 127.781H256v131.192H73.195zm0 0" fill="#5a5a5a"/><path d="M348.742 178.375h30.028v30h-30.028zm0 0" fill="#ee8700"/><path d="M133.23 178.375h70.06v30h-70.06zm0 0" fill="#00ee8a"/></svg>