<svg xml:space="preserve" width="682.667" height="682.667" xmlns="http://www.w3.org/2000/svg"><defs><clipPath clipPathUnits="userSpaceOnUse" id="a"><path d="M0 512h512V0H0Z"/></clipPath></defs><path d="M131.839 8.354H46.357v235.972h85.482z" style="fill:#edf7ff;fill-opacity:1;fill-rule:nonzero;stroke:none" transform="matrix(1.33333 0 0 -1.33333 0 682.667)"/><path d="M217.321 8.354h-85.482v201.435h85.482z" style="fill:#8caabd;fill-opacity:1;fill-rule:nonzero;stroke:none" transform="matrix(1.33333 0 0 -1.33333 0 682.667)"/><path d="M302.804 8.354h-85.482v299.184h85.482z" style="fill:#ffe20d;fill-opacity:1;fill-rule:nonzero;stroke:none" transform="matrix(1.33333 0 0 -1.33333 0 682.667)"/><path d="M388.286 8.354h-85.482v353.272h85.482z" style="fill:#91edff;fill-opacity:1;fill-rule:nonzero;stroke:none" transform="matrix(1.33333 0 0 -1.33333 0 682.667)"/><path d="M348.286 8.355h40v353.271h-40z" style="fill:#70e8ff;fill-opacity:1;fill-rule:nonzero;stroke:none" transform="matrix(1.33333 0 0 -1.33333 0 682.667)"/><path d="M473.769 8.354h-85.482v170.899h85.482z" style="fill:#edf7ff;fill-opacity:1;fill-rule:nonzero;stroke:none" transform="matrix(1.33333 0 0 -1.33333 0 682.667)"/><path d="M433.769 8.355h40v170.898h-40z" style="fill:#d9ecfc;fill-opacity:1;fill-rule:nonzero;stroke:#e1eefa;stroke-width:1;stroke-linecap:butt;stroke-linejoin:miter;stroke-miterlimit:10;stroke-dasharray:none;stroke-opacity:1" transform="matrix(1.33333 0 0 -1.33333 0 682.667)"/><g clip-path="url(#a)" transform="matrix(1.33333 0 0 -1.33333 0 682.667)"><path d="M0 0h-57.954v15.938c0 16.002 12.973 28.976 28.977 28.976C-12.974 44.914 0 31.94 0 15.938Z" style="fill:#91edff;fill-opacity:1;fill-rule:nonzero;stroke:none" transform="translate(118.075 244.519)"/><path d="M375.211 361.627H315.88v36.376h59.331z" style="fill:#8caabd;fill-opacity:1;fill-rule:nonzero;stroke:none"/><path d="M217.321 37h-41v139h41z" style="fill:#91edff;fill-opacity:1;fill-rule:nonzero;stroke:none"/><path d="M0 0c-10.11 0-18.335 8.225-18.335 18.335 0 10.11 8.225 18.335 18.335 18.335 10.11 0 18.335-8.225 18.335-18.335C18.335 8.225 10.11 0 0 0" style="fill:#ff99c7;fill-opacity:1;fill-rule:nonzero;stroke:none" transform="translate(260.063 467.83)"/><path d="M0 0c-10.11 0-18.335 8.225-18.335 18.335 0 10.11 8.225 18.335 18.335 18.335 10.11 0 18.334-8.225 18.334-18.335C18.334 8.225 10.11 0 0 0" style="fill:#23e8bf;fill-opacity:1;fill-rule:nonzero;stroke:none" transform="translate(173.117 433.515)"/><path d="M0 0c-10.11 0-18.335 8.225-18.335 18.335 0 10.11 8.225 18.335 18.335 18.335 10.11 0 18.335-8.225 18.335-18.335C18.335 8.225 10.11 0 0 0" style="fill:#4483e8;fill-opacity:1;fill-rule:nonzero;stroke:none" transform="translate(431.027 370.515)"/><path d="M0 0h497" style="fill:none;stroke:#060606;stroke-width:15;stroke-linecap:round;stroke-linejoin:round;stroke-miterlimit:10;stroke-dasharray:none;stroke-opacity:1" transform="translate(7.5 7.5)"/><path d="M0 0v235.971h-85.482V74.575" style="fill:none;stroke:#060606;stroke-width:15;stroke-linecap:round;stroke-linejoin:round;stroke-miterlimit:10;stroke-dasharray:none;stroke-opacity:1" transform="translate(131.839 8.355)"/><path d="M0 0v-34.702" style="fill:none;stroke:#060606;stroke-width:15;stroke-linecap:round;stroke-linejoin:round;stroke-miterlimit:10;stroke-dasharray:none;stroke-opacity:1" transform="translate(46.356 43.058)"/><path d="M0 0v201.435h85.482V0" style="fill:none;stroke:#060606;stroke-width:15;stroke-linecap:round;stroke-linejoin:round;stroke-miterlimit:10;stroke-dasharray:none;stroke-opacity:1" transform="translate(131.839 8.354)"/><path d="M0 0v299.184h85.482V0" style="fill:none;stroke:#060606;stroke-width:15;stroke-linecap:round;stroke-linejoin:round;stroke-miterlimit:10;stroke-dasharray:none;stroke-opacity:1" transform="translate(217.321 8.354)"/><path d="M0 0v248.652c-.096-.002-.19-.007-.286-.007" style="fill:none;stroke:#060606;stroke-width:15;stroke-linecap:round;stroke-linejoin:round;stroke-miterlimit:10;stroke-dasharray:none;stroke-opacity:1" transform="translate(388.286 8.355)"/><path d="M0 0c.097 0 .189-.014.286-.015v64.642h-85.482v-353.272" style="fill:none;stroke:#060606;stroke-width:15;stroke-linecap:round;stroke-linejoin:round;stroke-miterlimit:10;stroke-dasharray:none;stroke-opacity:1" transform="translate(388 297)"/><path d="M0 0v170.899h85.482V0" style="fill:none;stroke:#060606;stroke-width:15;stroke-linecap:round;stroke-linejoin:round;stroke-miterlimit:10;stroke-dasharray:none;stroke-opacity:1" transform="translate(388.286 8.354)"/><path d="M0 0h-57.954v15.938c0 16.002 12.973 28.976 28.977 28.976C-12.974 44.914 0 31.94 0 15.938Z" style="fill:none;stroke:#060606;stroke-width:15;stroke-linecap:round;stroke-linejoin:round;stroke-miterlimit:10;stroke-dasharray:none;stroke-opacity:1" transform="translate(118.075 244.519)"/><path d="M0 0v55.057" style="fill:none;stroke:#060606;stroke-width:15;stroke-linecap:round;stroke-linejoin:round;stroke-miterlimit:10;stroke-dasharray:none;stroke-opacity:1" transform="translate(89.098 289.433)"/><path d="M0 0h31.875" style="fill:none;stroke:#060606;stroke-width:15;stroke-linecap:round;stroke-linejoin:round;stroke-miterlimit:10;stroke-dasharray:none;stroke-opacity:1" transform="translate(73.16 208.297)"/><path d="M0 0h31.875" style="fill:none;stroke:#060606;stroke-width:15;stroke-linecap:round;stroke-linejoin:round;stroke-miterlimit:10;stroke-dasharray:none;stroke-opacity:1" transform="translate(73.16 176.258)"/><path d="M0 0h31.875" style="fill:none;stroke:#060606;stroke-width:15;stroke-linecap:round;stroke-linejoin:round;stroke-miterlimit:10;stroke-dasharray:none;stroke-opacity:1" transform="translate(73.16 144.22)"/><path d="M0 0h31.875" style="fill:none;stroke:#060606;stroke-width:15;stroke-linecap:round;stroke-linejoin:round;stroke-miterlimit:10;stroke-dasharray:none;stroke-opacity:1" transform="translate(73.16 112.18)"/><path d="M0 0h31.875" style="fill:none;stroke:#060606;stroke-width:15;stroke-linecap:round;stroke-linejoin:round;stroke-miterlimit:10;stroke-dasharray:none;stroke-opacity:1" transform="translate(73.16 80.142)"/><path d="M0 0h31.875" style="fill:none;stroke:#060606;stroke-width:15;stroke-linecap:round;stroke-linejoin:round;stroke-miterlimit:10;stroke-dasharray:none;stroke-opacity:1" transform="translate(73.16 48.102)"/><path d="M0 0h31.875" style="fill:none;stroke:#060606;stroke-width:15;stroke-linecap:round;stroke-linejoin:round;stroke-miterlimit:10;stroke-dasharray:none;stroke-opacity:1" transform="translate(414.16 144.22)"/><path d="M0 0h31.875" style="fill:none;stroke:#060606;stroke-width:15;stroke-linecap:round;stroke-linejoin:round;stroke-miterlimit:10;stroke-dasharray:none;stroke-opacity:1" transform="translate(414.16 112.18)"/><path d="M0 0h31.875" style="fill:none;stroke:#060606;stroke-width:15;stroke-linecap:round;stroke-linejoin:round;stroke-miterlimit:10;stroke-dasharray:none;stroke-opacity:1" transform="translate(414.16 80.142)"/><path d="M0 0h31.875" style="fill:none;stroke:#060606;stroke-width:15;stroke-linecap:round;stroke-linejoin:round;stroke-miterlimit:10;stroke-dasharray:none;stroke-opacity:1" transform="translate(414.16 48.102)"/><path d="M0 0v36.376h59.331V0" style="fill:none;stroke:#060606;stroke-width:15;stroke-linecap:round;stroke-linejoin:round;stroke-miterlimit:10;stroke-dasharray:none;stroke-opacity:1" transform="translate(315.88 361.627)"/><path d="M217.321 37h-41v139h41z" style="fill:none;stroke:#060606;stroke-width:15;stroke-linecap:round;stroke-linejoin:round;stroke-miterlimit:10;stroke-dasharray:none;stroke-opacity:1"/><path d="M0 0v-231" style="fill:none;stroke:#060606;stroke-width:15;stroke-linecap:round;stroke-linejoin:round;stroke-miterlimit:10;stroke-dasharray:none;stroke-opacity:1" transform="translate(247 273.446)"/><path d="M0 0v-231" style="fill:none;stroke:#060606;stroke-width:15;stroke-linecap:round;stroke-linejoin:round;stroke-miterlimit:10;stroke-dasharray:none;stroke-opacity:1" transform="translate(275 273.446)"/><path d="M0 0c9.652 0 9.668 15 0 15-9.651 0-9.667-15 0-15" style="fill:#060606;fill-opacity:1;fill-rule:nonzero;stroke:none" transform="translate(331.934 316.991)"/><path d="M0 0c9.652 0 9.668 15 0 15-9.651 0-9.667-15 0-15" style="fill:#060606;fill-opacity:1;fill-rule:nonzero;stroke:none" transform="translate(331.934 285.991)"/><path d="M0 0c9.652 0 9.668 15 0 15-9.651 0-9.667-15 0-15" style="fill:#060606;fill-opacity:1;fill-rule:nonzero;stroke:none" transform="translate(331.934 254.991)"/><path d="M0 0c9.652 0 9.668 15 0 15-9.651 0-9.667-15 0-15" style="fill:#060606;fill-opacity:1;fill-rule:nonzero;stroke:none" transform="translate(331.934 223.991)"/><path d="M0 0c9.652 0 9.668 15 0 15-9.651 0-9.667-15 0-15" style="fill:#060606;fill-opacity:1;fill-rule:nonzero;stroke:none" transform="translate(331.934 192.991)"/><path d="M0 0c9.652 0 9.668 15 0 15-9.651 0-9.667-15 0-15" style="fill:#060606;fill-opacity:1;fill-rule:nonzero;stroke:none" transform="translate(331.934 161.991)"/><path d="M0 0c9.652 0 9.668 15 0 15-9.651 0-9.667-15 0-15" style="fill:#060606;fill-opacity:1;fill-rule:nonzero;stroke:none" transform="translate(331.934 130.991)"/><path d="M0 0c9.652 0 9.668 15 0 15-9.651 0-9.667-15 0-15" style="fill:#060606;fill-opacity:1;fill-rule:nonzero;stroke:none" transform="translate(331.934 99.991)"/><path d="M0 0c9.652 0 9.668 15 0 15-9.651 0-9.667-15 0-15" style="fill:#060606;fill-opacity:1;fill-rule:nonzero;stroke:none" transform="translate(331.934 68.991)"/><path d="M0 0c9.652 0 9.668 15 0 15-9.651 0-9.667-15 0-15" style="fill:#060606;fill-opacity:1;fill-rule:nonzero;stroke:none" transform="translate(331.934 37.991)"/><path d="M0 0c9.651 0 9.667 15 0 15-9.652 0-9.668-15 0-15" style="fill:#060606;fill-opacity:1;fill-rule:nonzero;stroke:none" transform="translate(359.156 316.991)"/><path d="M0 0c9.651 0 9.667 15 0 15-9.652 0-9.668-15 0-15" style="fill:#060606;fill-opacity:1;fill-rule:nonzero;stroke:none" transform="translate(359.156 285.991)"/><path d="M0 0c9.651 0 9.667 15 0 15-9.652 0-9.668-15 0-15" style="fill:#060606;fill-opacity:1;fill-rule:nonzero;stroke:none" transform="translate(359.156 254.991)"/><path d="M0 0c9.651 0 9.667 15 0 15-9.652 0-9.668-15 0-15" style="fill:#060606;fill-opacity:1;fill-rule:nonzero;stroke:none" transform="translate(359.156 223.991)"/><path d="M0 0c9.651 0 9.667 15 0 15-9.652 0-9.668-15 0-15" style="fill:#060606;fill-opacity:1;fill-rule:nonzero;stroke:none" transform="translate(359.156 192.991)"/><path d="M0 0c9.651 0 9.667 15 0 15-9.652 0-9.668-15 0-15" style="fill:#060606;fill-opacity:1;fill-rule:nonzero;stroke:none" transform="translate(359.156 161.991)"/><path d="M0 0c9.651 0 9.667 15 0 15-9.652 0-9.668-15 0-15" style="fill:#060606;fill-opacity:1;fill-rule:nonzero;stroke:none" transform="translate(359.156 130.991)"/><path d="M0 0c9.651 0 9.667 15 0 15-9.652 0-9.668-15 0-15" style="fill:#060606;fill-opacity:1;fill-rule:nonzero;stroke:none" transform="translate(359.156 99.991)"/><path d="M0 0c9.651 0 9.667 15 0 15-9.652 0-9.668-15 0-15" style="fill:#060606;fill-opacity:1;fill-rule:nonzero;stroke:none" transform="translate(359.156 68.991)"/><path d="M0 0c9.651 0 9.667 15 0 15-9.652 0-9.668-15 0-15" style="fill:#060606;fill-opacity:1;fill-rule:nonzero;stroke:none" transform="translate(359.156 37.991)"/><path d="M0 0c-7.259 7.259-19.006 7.259-26.265 0" style="fill:none;stroke:#060606;stroke-width:15;stroke-linecap:round;stroke-linejoin:round;stroke-miterlimit:10;stroke-dasharray:none;stroke-opacity:1" transform="translate(101.939 372.791)"/><path d="M0 0c-19.179 19.179-50.217 19.179-69.395 0" style="fill:none;stroke:#060606;stroke-width:15;stroke-linecap:round;stroke-linejoin:round;stroke-miterlimit:10;stroke-dasharray:none;stroke-opacity:1" transform="translate(123.503 394.757)"/><path d="M0 0c-7.259 7.259-19.007 7.259-26.266 0" style="fill:none;stroke:#060606;stroke-width:15;stroke-linecap:round;stroke-linejoin:round;stroke-miterlimit:10;stroke-dasharray:none;stroke-opacity:1" transform="translate(358.678 430.791)"/><path d="M0 0c-19.178 19.179-50.216 19.179-69.395 0" style="fill:none;stroke:#060606;stroke-width:15;stroke-linecap:round;stroke-linejoin:round;stroke-miterlimit:10;stroke-dasharray:none;stroke-opacity:1" transform="translate(380.242 452.757)"/><path d="M0 0c-10.11 0-18.335 8.225-18.335 18.335 0 10.11 8.225 18.335 18.335 18.335 10.11 0 18.335-8.225 18.335-18.335C18.335 8.225 10.11 0 0 0Z" style="fill:none;stroke:#060606;stroke-width:15;stroke-linecap:round;stroke-linejoin:round;stroke-miterlimit:10;stroke-dasharray:none;stroke-opacity:1" transform="translate(260.063 467.83)"/><path d="M0 0c-10.11 0-18.335 8.225-18.335 18.335 0 10.11 8.225 18.335 18.335 18.335 10.11 0 18.334-8.225 18.334-18.335C18.334 8.225 10.11 0 0 0Z" style="fill:none;stroke:#060606;stroke-width:15;stroke-linecap:round;stroke-linejoin:round;stroke-miterlimit:10;stroke-dasharray:none;stroke-opacity:1" transform="translate(173.117 433.515)"/><path d="M0 0c-10.11 0-18.335 8.225-18.335 18.335 0 10.11 8.225 18.335 18.335 18.335 10.11 0 18.335-8.225 18.335-18.335C18.335 8.225 10.11 0 0 0Z" style="fill:none;stroke:#060606;stroke-width:15;stroke-linecap:round;stroke-linejoin:round;stroke-miterlimit:10;stroke-dasharray:none;stroke-opacity:1" transform="translate(431.027 370.515)"/><path d="m0 0-.728-92.278" style="fill:none;stroke:#060606;stroke-width:15;stroke-linecap:round;stroke-linejoin:round;stroke-miterlimit:10;stroke-dasharray:0,30;stroke-dashoffset:0;stroke-opacity:1" transform="translate(260.063 432.575)"/><path d="M0 0v151.249" style="fill:none;stroke:#060606;stroke-width:15;stroke-linecap:round;stroke-linejoin:round;stroke-miterlimit:10;stroke-dasharray:0,30;stroke-dashoffset:0;stroke-opacity:1" transform="translate(173.117 247.504)"/><path d="M0 0v121.249" style="fill:none;stroke:#060606;stroke-width:15;stroke-linecap:round;stroke-linejoin:round;stroke-miterlimit:10;stroke-dasharray:0,30;stroke-dashoffset:0;stroke-opacity:1" transform="translate(431.027 219.504)"/></g></svg>